<mxfile host="app.diagrams.net" modified="2023-11-08T18:20:08.584Z" agent="Mozilla/5.0 (Windows NT 10.0; Win64; x64) AppleWebKit/537.36 (KHTML, like Gecko) Chrome/119.0.0.0 Safari/537.36" etag="1qsNgmmMkJQ76DXr-KWK" version="22.0.8" type="google">
  <diagram name="Page-1" id="wobNTJtYD0dIMouh2OzE">
    <mxGraphModel grid="1" page="1" gridSize="10" guides="1" tooltips="1" connect="1" arrows="1" fold="1" pageScale="1" pageWidth="1169" pageHeight="1654" math="0" shadow="0">
      <root>
        <mxCell id="0" />
        <mxCell id="1" parent="0" />
        <mxCell id="TNiS1UstAuTWFkXQDxUF-5" style="edgeStyle=orthogonalEdgeStyle;rounded=0;orthogonalLoop=1;jettySize=auto;html=1;entryX=0.5;entryY=0;entryDx=0;entryDy=0;" edge="1" parent="1" source="TNiS1UstAuTWFkXQDxUF-4" target="TNiS1UstAuTWFkXQDxUF-7">
          <mxGeometry relative="1" as="geometry">
            <mxPoint x="360" y="150" as="targetPoint" />
          </mxGeometry>
        </mxCell>
        <mxCell id="TNiS1UstAuTWFkXQDxUF-4" value="Recuperation des datas sur les recettes" style="rounded=0;whiteSpace=wrap;html=1;" vertex="1" parent="1">
          <mxGeometry x="300" y="50" width="120" height="60" as="geometry" />
        </mxCell>
        <mxCell id="TNiS1UstAuTWFkXQDxUF-8" style="edgeStyle=orthogonalEdgeStyle;rounded=0;orthogonalLoop=1;jettySize=auto;html=1;" edge="1" parent="1" source="TNiS1UstAuTWFkXQDxUF-7" target="TNiS1UstAuTWFkXQDxUF-9">
          <mxGeometry relative="1" as="geometry">
            <mxPoint x="360" y="290" as="targetPoint" />
          </mxGeometry>
        </mxCell>
        <mxCell id="TNiS1UstAuTWFkXQDxUF-7" value="Pour chaque recette on crée une variable qui contiendra sous forme de chaine. Tout les element de la recette (ingredient ustensil etc..)" style="rounded=0;whiteSpace=wrap;html=1;" vertex="1" parent="1">
          <mxGeometry x="250" y="170" width="220" height="70" as="geometry" />
        </mxCell>
        <mxCell id="TNiS1UstAuTWFkXQDxUF-11" value="" style="edgeStyle=orthogonalEdgeStyle;rounded=0;orthogonalLoop=1;jettySize=auto;html=1;" edge="1" parent="1" source="TNiS1UstAuTWFkXQDxUF-9" target="TNiS1UstAuTWFkXQDxUF-10">
          <mxGeometry relative="1" as="geometry" />
        </mxCell>
        <mxCell id="TNiS1UstAuTWFkXQDxUF-9" value="Création des tags sur les filtres secondaires (four,pattate etc..) en fonction de l&#39;existence de ceux-ci dans au moins une recette. On en profite pour leur attribuer les id des recettes qui leur sont associe" style="rounded=0;whiteSpace=wrap;html=1;" vertex="1" parent="1">
          <mxGeometry x="260" y="300" width="200" height="100" as="geometry" />
        </mxCell>
        <mxCell id="TNiS1UstAuTWFkXQDxUF-12" style="edgeStyle=orthogonalEdgeStyle;rounded=0;orthogonalLoop=1;jettySize=auto;html=1;" edge="1" parent="1" source="TNiS1UstAuTWFkXQDxUF-10" target="TNiS1UstAuTWFkXQDxUF-13">
          <mxGeometry relative="1" as="geometry">
            <mxPoint x="360" y="630" as="targetPoint" />
          </mxGeometry>
        </mxCell>
        <mxCell id="TNiS1UstAuTWFkXQDxUF-10" value="Affichage des recettes et des filtres" style="rounded=0;whiteSpace=wrap;html=1;" vertex="1" parent="1">
          <mxGeometry x="260" y="460" width="200" height="80" as="geometry" />
        </mxCell>
        <mxCell id="TNiS1UstAuTWFkXQDxUF-32" style="edgeStyle=orthogonalEdgeStyle;rounded=0;orthogonalLoop=1;jettySize=auto;html=1;exitX=1;exitY=0.5;exitDx=0;exitDy=0;entryX=0;entryY=0.5;entryDx=0;entryDy=0;" edge="1" parent="1" source="TNiS1UstAuTWFkXQDxUF-13" target="TNiS1UstAuTWFkXQDxUF-15">
          <mxGeometry relative="1" as="geometry" />
        </mxCell>
        <mxCell id="TNiS1UstAuTWFkXQDxUF-13" value="Utilisateur tape une recherche dans la barre principale" style="rounded=0;whiteSpace=wrap;html=1;" vertex="1" parent="1">
          <mxGeometry x="300" y="600" width="120" height="60" as="geometry" />
        </mxCell>
        <mxCell id="TNiS1UstAuTWFkXQDxUF-33" style="edgeStyle=orthogonalEdgeStyle;rounded=0;orthogonalLoop=1;jettySize=auto;html=1;exitX=1;exitY=0.5;exitDx=0;exitDy=0;entryX=0;entryY=0.5;entryDx=0;entryDy=0;" edge="1" parent="1" source="TNiS1UstAuTWFkXQDxUF-15" target="TNiS1UstAuTWFkXQDxUF-19">
          <mxGeometry relative="1" as="geometry" />
        </mxCell>
        <mxCell id="TNiS1UstAuTWFkXQDxUF-35" style="edgeStyle=orthogonalEdgeStyle;rounded=0;orthogonalLoop=1;jettySize=auto;html=1;entryX=0.5;entryY=1;entryDx=0;entryDy=0;" edge="1" parent="1" source="TNiS1UstAuTWFkXQDxUF-15" target="TNiS1UstAuTWFkXQDxUF-13">
          <mxGeometry relative="1" as="geometry">
            <mxPoint x="530" y="780" as="targetPoint" />
            <Array as="points">
              <mxPoint x="530" y="770" />
              <mxPoint x="360" y="770" />
            </Array>
          </mxGeometry>
        </mxCell>
        <mxCell id="TNiS1UstAuTWFkXQDxUF-15" value="Si le champs et supérieure ou egale a 3 caractere" style="rhombus;whiteSpace=wrap;html=1;" vertex="1" parent="1">
          <mxGeometry x="470" y="562.5" width="120" height="135" as="geometry" />
        </mxCell>
        <mxCell id="TNiS1UstAuTWFkXQDxUF-22" style="edgeStyle=orthogonalEdgeStyle;rounded=0;orthogonalLoop=1;jettySize=auto;html=1;" edge="1" parent="1" source="TNiS1UstAuTWFkXQDxUF-19" target="TNiS1UstAuTWFkXQDxUF-23">
          <mxGeometry relative="1" as="geometry">
            <mxPoint x="870" y="630" as="targetPoint" />
          </mxGeometry>
        </mxCell>
        <mxCell id="TNiS1UstAuTWFkXQDxUF-28" style="edgeStyle=orthogonalEdgeStyle;rounded=0;orthogonalLoop=1;jettySize=auto;html=1;" edge="1" parent="1" source="TNiS1UstAuTWFkXQDxUF-19" target="TNiS1UstAuTWFkXQDxUF-29">
          <mxGeometry relative="1" as="geometry">
            <mxPoint x="640" y="800" as="targetPoint" />
          </mxGeometry>
        </mxCell>
        <mxCell id="TNiS1UstAuTWFkXQDxUF-19" value="Y a t&#39;il au minimun un tag active sur le filtre secondaire ?" style="rhombus;whiteSpace=wrap;html=1;" vertex="1" parent="1">
          <mxGeometry x="660" y="537.5" width="240" height="185" as="geometry" />
        </mxCell>
        <mxCell id="TNiS1UstAuTWFkXQDxUF-24" style="edgeStyle=orthogonalEdgeStyle;rounded=0;orthogonalLoop=1;jettySize=auto;html=1;entryX=0.5;entryY=0;entryDx=0;entryDy=0;" edge="1" parent="1" source="TNiS1UstAuTWFkXQDxUF-23" target="TNiS1UstAuTWFkXQDxUF-31">
          <mxGeometry relative="1" as="geometry">
            <mxPoint x="910" y="752" as="targetPoint" />
          </mxGeometry>
        </mxCell>
        <mxCell id="TNiS1UstAuTWFkXQDxUF-23" value="Récupération de toute les recettes" style="rounded=0;whiteSpace=wrap;html=1;" vertex="1" parent="1">
          <mxGeometry x="1010" y="600" width="120" height="60" as="geometry" />
        </mxCell>
        <mxCell id="TNiS1UstAuTWFkXQDxUF-25" value="Non" style="text;html=1;strokeColor=none;fillColor=none;align=center;verticalAlign=middle;whiteSpace=wrap;rounded=0;" vertex="1" parent="1">
          <mxGeometry x="915" y="580" width="60" height="30" as="geometry" />
        </mxCell>
        <mxCell id="TNiS1UstAuTWFkXQDxUF-30" style="edgeStyle=orthogonalEdgeStyle;rounded=0;orthogonalLoop=1;jettySize=auto;html=1;entryX=0;entryY=0.5;entryDx=0;entryDy=0;" edge="1" parent="1" source="TNiS1UstAuTWFkXQDxUF-29" target="TNiS1UstAuTWFkXQDxUF-31">
          <mxGeometry relative="1" as="geometry">
            <mxPoint x="850" y="796" as="targetPoint" />
          </mxGeometry>
        </mxCell>
        <mxCell id="TNiS1UstAuTWFkXQDxUF-29" value="Récupération de toute recettes avec les mêmes id que les tags actifs" style="rounded=0;whiteSpace=wrap;html=1;" vertex="1" parent="1">
          <mxGeometry x="720" y="767" width="120" height="60" as="geometry" />
        </mxCell>
        <mxCell id="TNiS1UstAuTWFkXQDxUF-37" style="edgeStyle=orthogonalEdgeStyle;rounded=0;orthogonalLoop=1;jettySize=auto;html=1;entryX=0;entryY=0.5;entryDx=0;entryDy=0;exitX=0.5;exitY=1;exitDx=0;exitDy=0;" edge="1" parent="1" source="TNiS1UstAuTWFkXQDxUF-31" target="TNiS1UstAuTWFkXQDxUF-10">
          <mxGeometry relative="1" as="geometry" />
        </mxCell>
        <mxCell id="TNiS1UstAuTWFkXQDxUF-39" style="edgeStyle=orthogonalEdgeStyle;rounded=0;orthogonalLoop=1;jettySize=auto;html=1;exitX=1;exitY=0.5;exitDx=0;exitDy=0;" edge="1" parent="1" source="TNiS1UstAuTWFkXQDxUF-31" target="TNiS1UstAuTWFkXQDxUF-40">
          <mxGeometry relative="1" as="geometry">
            <mxPoint x="1270" y="1060" as="targetPoint" />
          </mxGeometry>
        </mxCell>
        <mxCell id="TNiS1UstAuTWFkXQDxUF-31" value="Recherche dans la chaine de caractere de chacune des recettes recupere si la valeur est trouve" style="rhombus;whiteSpace=wrap;html=1;" vertex="1" parent="1">
          <mxGeometry x="925" y="697" width="290" height="200" as="geometry" />
        </mxCell>
        <mxCell id="TNiS1UstAuTWFkXQDxUF-34" value="Oui" style="text;html=1;strokeColor=none;fillColor=none;align=center;verticalAlign=middle;whiteSpace=wrap;rounded=0;" vertex="1" parent="1">
          <mxGeometry x="590" y="600" width="60" height="30" as="geometry" />
        </mxCell>
        <mxCell id="TNiS1UstAuTWFkXQDxUF-36" value="Non" style="text;html=1;strokeColor=none;fillColor=none;align=center;verticalAlign=middle;whiteSpace=wrap;rounded=0;" vertex="1" parent="1">
          <mxGeometry x="540" y="720" width="60" height="30" as="geometry" />
        </mxCell>
        <mxCell id="TNiS1UstAuTWFkXQDxUF-38" value="Oui" style="text;html=1;strokeColor=none;fillColor=none;align=center;verticalAlign=middle;whiteSpace=wrap;rounded=0;" vertex="1" parent="1">
          <mxGeometry x="940" y="867" width="60" height="30" as="geometry" />
        </mxCell>
        <mxCell id="TNiS1UstAuTWFkXQDxUF-41" style="edgeStyle=orthogonalEdgeStyle;rounded=0;orthogonalLoop=1;jettySize=auto;html=1;entryX=0;entryY=0.5;entryDx=0;entryDy=0;" edge="1" parent="1" source="TNiS1UstAuTWFkXQDxUF-40" target="TNiS1UstAuTWFkXQDxUF-13">
          <mxGeometry relative="1" as="geometry" />
        </mxCell>
        <mxCell id="TNiS1UstAuTWFkXQDxUF-40" value="Affichage du message d&#39;erreur &quot;Aucune recette trouve&quot;" style="rounded=0;whiteSpace=wrap;html=1;" vertex="1" parent="1">
          <mxGeometry x="930" y="1000" width="120" height="60" as="geometry" />
        </mxCell>
        <mxCell id="TNiS1UstAuTWFkXQDxUF-42" value="Non" style="text;html=1;strokeColor=none;fillColor=none;align=center;verticalAlign=middle;whiteSpace=wrap;rounded=0;" vertex="1" parent="1">
          <mxGeometry x="1169" y="850" width="60" height="30" as="geometry" />
        </mxCell>
        <mxCell id="TNiS1UstAuTWFkXQDxUF-43" value="Oui" style="text;html=1;strokeColor=none;fillColor=none;align=center;verticalAlign=middle;whiteSpace=wrap;rounded=0;" vertex="1" parent="1">
          <mxGeometry x="720" y="720" width="60" height="30" as="geometry" />
        </mxCell>
      </root>
    </mxGraphModel>
  </diagram>
</mxfile>
